<?xml version="1.0" encoding="UTF-8" standalone="no"?>
<svg
   width="256"
   height="256"
   viewBox="0 0 67.733332 67.733335"
   version="1.1"
   id="svg8"
   sodipodi:docname="calamares_install_image.svg"
   inkscape:version="1.3 (0e150ed6c4, 2023-07-21)"
   inkscape:export-filename="/home/uri/bitmap.png"
   inkscape:export-xdpi="96"
   inkscape:export-ydpi="96"
   xml:space="preserve"
   xmlns:inkscape="http://www.inkscape.org/namespaces/inkscape"
   xmlns:sodipodi="http://sodipodi.sourceforge.net/DTD/sodipodi-0.dtd"
   xmlns:xlink="http://www.w3.org/1999/xlink"
   xmlns="http://www.w3.org/2000/svg"
   xmlns:svg="http://www.w3.org/2000/svg"
   xmlns:rdf="http://www.w3.org/1999/02/22-rdf-syntax-ns#"
   xmlns:cc="http://creativecommons.org/ns#"
   xmlns:dc="http://purl.org/dc/elements/1.1/"><defs
     id="defs2"><rect
       x="17"
       y="139.5"
       width="220"
       height="97"
       id="rect1" /><linearGradient
       inkscape:collect="always"
       id="linearGradient962"><stop
         style="stop-color:#090180;stop-opacity:1;"
         offset="0"
         id="stop958" /><stop
         style="stop-color:#0081c0;stop-opacity:1;"
         offset="1"
         id="stop960" /></linearGradient><linearGradient
       inkscape:collect="always"
       xlink:href="#linearGradient962"
       id="linearGradient964"
       x1="203.53801"
       y1="319.10983"
       x2="282.91855"
       y2="239.35014"
       gradientUnits="userSpaceOnUse"
       gradientTransform="matrix(0.08877087,0,0,0.09237908,10.942887,224.403)" /></defs><sodipodi:namedview
     id="base"
     pagecolor="#ffffff"
     bordercolor="#666666"
     borderopacity="1.0"
     inkscape:pageopacity="0.0"
     inkscape:pageshadow="2"
     inkscape:zoom="2"
     inkscape:cx="149.75"
     inkscape:cy="150.5"
     inkscape:document-units="px"
     inkscape:current-layer="layer1"
     showgrid="true"
     units="px"
     inkscape:showpageshadow="false"
     borderlayer="true"
     showguides="true"
     inkscape:guide-bbox="true"
     inkscape:window-width="1600"
     inkscape:window-height="828"
     inkscape:window-x="0"
     inkscape:window-y="0"
     inkscape:window-maximized="1"
     inkscape:pagecheckerboard="true"
     inkscape:document-rotation="0"
     inkscape:deskcolor="#d1d1d1"><inkscape:grid
       type="xygrid"
       id="grid4485"
       empspacing="5"
       originx="0"
       originy="0"
       spacingy="1"
       spacingx="1"
       units="px"
       visible="true" /><sodipodi:guide
       position="67.733334,67.733334"
       orientation="1,0"
       id="guide4487"
       inkscape:locked="false"
       inkscape:label="2560"
       inkscape:color="rgb(0,0,255)" /><sodipodi:guide
       position="0,0"
       orientation="1,0"
       id="guide4489"
       inkscape:locked="false"
       inkscape:label="1000"
       inkscape:color="rgb(0,0,255)" /><sodipodi:guide
       position="67.733333,33.866667"
       orientation="0,1"
       id="guide851"
       inkscape:locked="false" /><sodipodi:guide
       position="33.866666,67.733335"
       orientation="1,0"
       id="guide853"
       inkscape:locked="false" /></sodipodi:namedview><metadata
     id="metadata5"><rdf:RDF><cc:Work
         rdf:about=""><dc:format>image/svg+xml</dc:format><dc:type
           rdf:resource="http://purl.org/dc/dcmitype/StillImage" /></cc:Work></rdf:RDF></metadata><g
     inkscape:label="Capa 1"
     inkscape:groupmode="layer"
     id="layer1"
     transform="translate(0,-229.26664)"><rect
       style="opacity:1;fill:#2b2c31;fill-opacity:1;stroke:none;stroke-width:0.0611029;stroke-linecap:round;stroke-linejoin:round;stroke-miterlimit:4;stroke-dasharray:none;stroke-opacity:1"
       id="rect912"
       width="67.73333"
       height="67.73333"
       x="0"
       y="229.26665" /><text
       xml:space="preserve"
       style="font-style:normal;font-weight:normal;font-size:10.5833px;line-height:1.25;font-family:sans-serif;letter-spacing:0px;word-spacing:0px;fill:#000000;fill-opacity:1;stroke:none;stroke-width:0.264583"
       x="6.614583"
       y="294.35413"
       id="text885" /><path
       style="fill:url(#linearGradient964);fill-opacity:1;stroke:none;stroke-width:0.21425;stroke-linecap:round;stroke-dasharray:none;stroke-opacity:1"
       d="m 33.472657,258.11457 c -1.668152,-0.46822 -3.223265,-1.9435 -4.461525,-4.2325 l -0.275372,-0.50904 0.298843,-0.55486 c 0.42346,-0.78623 1.205715,-1.84314 2.049308,-2.76883 0.398694,-0.43749 0.714769,-0.80599 0.702389,-0.81887 -0.01238,-0.0129 -0.802476,0.51463 -1.755771,1.17224 -0.953291,0.65762 -1.763824,1.19567 -1.801183,1.19567 -0.07391,0 -0.191999,-0.40964 -0.350029,-1.21423 -0.05559,-0.28303 -0.0997,-1.17289 -0.09801,-1.97746 0.0034,-1.60049 0.166704,-2.67063 0.598617,-3.92168 0.276141,-0.79985 0.857478,-2.01842 0.962921,-2.01842 0.0432,0 0.642276,0.27928 1.331273,0.62061 0.688997,0.34133 1.289856,0.62061 1.335245,0.62061 0.04539,0 -0.199487,-0.32092 -0.544167,-0.71315 -0.34468,-0.39223 -0.813147,-0.93106 -1.041038,-1.19741 l -0.414346,-0.48426 0.712531,-0.76117 c 1.219393,-1.30264 2.590692,-2.12359 4.221979,-2.52754 0.639774,-0.15843 0.926033,-0.17914 1.943047,-0.14058 0.656004,0.0249 1.384423,0.0972 1.61871,0.1608 l 0.425976,0.11557 -0.681562,0.0564 c -0.880802,0.0729 -1.493699,0.36926 -2.0661,0.99909 -0.513199,0.56468 -0.733205,0.99102 -0.871674,1.68917 -0.162458,0.8191 0.01314,1.78518 0.510266,2.80734 0.105579,0.21709 0.576719,1.01309 1.046976,1.7689 0.470259,0.75581 1.082313,1.82999 1.360117,2.38706 l 0.505102,1.01287 -0.199745,0.16195 c -0.109861,0.0891 -0.736477,0.54819 -1.392481,1.02025 -0.656003,0.47207 -1.208707,0.87099 -1.228233,0.88649 -0.150164,0.11923 0.227667,0.0918 1.280467,-0.0931 2.015646,-0.35389 2.014122,-0.35376 2.06795,-0.1712 0.292715,0.99275 0.387564,2.94302 0.182191,3.74611 -0.454915,1.7789 -1.860308,3.22536 -3.576905,3.68142 -0.621008,0.16499 -1.811064,0.16585 -2.395767,0.002 z"
       id="path9138" /><text
       xml:space="preserve"
       transform="matrix(0.26458333,0,0,0.26458333,0.92604163,238.92393)"
       id="text1"
       style="font-size:21.3333px;white-space:pre;shape-inside:url(#rect1);fill:#000000"><tspan
         x="17"
         y="158.91064"
         id="tspan3"><tspan
           style="fill:#ececec"
           id="tspan2">Installing Parch Linux</tspan></tspan></text></g></svg>
